# xmcd CD database file
#
# Track frame offsets:
#	187
#	26012
#	66600
#	86137
#	109087
#	126862
#	143512
#	162575
#	182612
#	210862
#	239437
#
# Disc length: 3552 seconds
#
# Revision: 2
# Processed by: cddbd v1.4b41PL1 Copyright (c) Steve Scherf et al.
# Submitted via: Feurio! 1.50.2ß - http://www.feurio.com
#
DISCID=9a0dde0b
DTITLE=Backbone Slip - Swamp Water
DYEAR=1900
DGENRE=
TTITLE0=Jungle Fever
TTITLE1=I'm Gonna Move To The Outskirts Of Town
TTITLE2=Big Talk
TTITLE3=Lonely Avenue
TTITLE4=Blue Wave
TTITLE5=Against The Wall
TTITLE6=Breaking Up Somebody's Home
TTITLE7=The Past Is A Mirror
TTITLE8=Johnny Lee's Mood
TTITLE9=Beggar For The Blues
TTITLE10=Bo Diddley's A Gunslinger
EXTD=
EXTT0=
EXTT1=
EXTT2=
EXTT3=
EXTT4=
EXTT5=
EXTT6=
EXTT7=
EXTT8=
EXTT9=
EXTT10=
PLAYORDER=
